<svg width="137" height="150" viewBox="0 0 137 150" fill="none" xmlns="http://www.w3.org/2000/svg">
<g clip-path="url(#clip0_35_848)">
<path d="M14.148 0L16.2855 28.0921L44.3776 30.2296L16.2855 32.3671L14.148 60.4592L12.0105 32.3671L-16.0815 30.2296L12.0105 28.0921L14.148 0ZM75.3725 0L77.51 28.0921L105.602 30.2296L77.51 32.3671L75.3725 60.4592L73.235 32.3671L45.1429 30.2296L73.235 28.0921L75.3725 0Z" fill="#D5E4FF" fill-opacity="0.2"/>
<path d="M44.7601 29.8469L46.8976 57.939L74.9897 60.0765L46.8976 62.214L44.7601 90.3061L42.6226 62.214L14.5305 60.0765L42.6226 57.939L44.7601 29.8469ZM105.985 29.8469L108.122 57.939L136.214 60.0765L108.122 62.214L105.985 90.3061L103.847 62.214L75.755 60.0765L103.847 57.939L105.985 29.8469Z" fill="#D5E4FF" fill-opacity="0.2"/>
<path d="M75.3723 59.6939L77.5098 87.786L105.602 89.9235L77.5098 92.061L75.3723 120.153L73.2347 92.061L45.1427 89.9235L73.2347 87.786L75.3723 59.6939ZM105.984 89.5408L108.122 117.633L136.214 119.77L108.122 121.908L105.984 150L103.847 121.908L75.7549 119.77L103.847 117.633L105.984 89.5408ZM-46.3114 0L-44.1739 28.0921L-16.0818 30.2296L-44.1739 32.3671L-46.3114 60.4592L-48.4489 32.3671L-76.541 30.2296L-48.4489 28.0921L-46.3114 0ZM-15.6992 29.8469L-13.5617 57.939L14.5304 60.0765L-13.5617 62.214L-15.6992 90.3061L-17.8367 62.214L-45.9288 60.0765L-17.8367 57.939L-15.6992 29.8469ZM14.9131 59.6939L17.0506 87.786L45.1427 89.9235L17.0506 92.061L14.9131 120.153L12.7756 92.061L-15.3165 89.9235L12.7756 87.786L14.9131 59.6939Z" fill="#D5E4FF" fill-opacity="0.2"/>
<path d="M45.5255 89.5408L47.663 117.633L75.7551 119.77L47.663 121.908L45.5255 150L43.388 121.908L15.2959 119.77L43.388 117.633L45.5255 89.5408ZM-106.77 0L-104.633 28.0921L-76.5408 30.2296L-104.633 32.3671L-106.77 60.4592L-108.908 32.3671L-137 30.2296L-108.908 28.0921L-106.77 0ZM-76.1582 29.8469L-74.0207 57.939L-45.9286 60.0765L-74.0207 62.214L-76.1582 90.3061L-78.2957 62.214L-106.388 60.0765L-78.2957 57.939L-76.1582 29.8469ZM-45.5459 59.6939L-43.4084 87.786L-15.3163 89.9235L-43.4084 92.061L-45.5459 120.153L-47.6834 92.061L-75.7755 89.9235L-47.6834 87.786L-45.5459 59.6939Z" fill="#D5E4FF" fill-opacity="0.2"/>
<path d="M-106.77 59.6938L-104.633 87.7859L-76.5408 89.9234L-104.633 92.0609L-106.77 120.153L-108.908 92.0609L-137 89.9234L-108.908 87.7859L-106.77 59.6938ZM-14.9337 89.5408L-12.7962 117.633L15.2959 119.77L-12.7962 121.908L-14.9337 150L-17.0712 121.908L-45.1633 119.77L-17.0712 117.633L-14.9337 89.5408ZM-76.1582 89.5408L-74.0207 117.633L-45.9286 119.77L-74.0207 121.908L-76.1582 150L-78.2957 121.908L-106.388 119.77L-78.2957 117.633L-76.1582 89.5408Z" fill="#D5E4FF" fill-opacity="0.2"/>
</g>
<defs>
<clipPath id="clip0_35_848">
<rect width="273.214" height="150" fill="white" transform="translate(-137)"/>
</clipPath>
</defs>
</svg>
