<svg width="274" height="150" viewBox="0 0 274 150" fill="none" xmlns="http://www.w3.org/2000/svg">
<g clip-path="url(#clip0_35_842)">
<path d="M151.148 0L153.286 28.0921L181.378 30.2296L153.286 32.3671L151.148 60.4592L149.011 32.3671L120.918 30.2296L149.011 28.0921L151.148 0ZM212.373 0L214.51 28.0921L242.602 30.2296L214.51 32.3671L212.373 60.4592L210.235 32.3671L182.143 30.2296L210.235 28.0921L212.373 0Z" fill="#D5E4FF" fill-opacity="0.2"/>
<path d="M181.76 29.8469L183.898 57.939L211.99 60.0765L183.898 62.214L181.76 90.3061L179.623 62.214L151.531 60.0765L179.623 57.939L181.76 29.8469ZM242.985 29.8469L245.122 57.939L273.214 60.0765L245.122 62.214L242.985 90.3061L240.847 62.214L212.755 60.0765L240.847 57.939L242.985 29.8469Z" fill="#D5E4FF" fill-opacity="0.2"/>
<path d="M212.372 59.6939L214.51 87.786L242.602 89.9235L214.51 92.061L212.372 120.153L210.235 92.061L182.143 89.9235L210.235 87.786L212.372 59.6939ZM242.985 89.5408L245.122 117.633L273.214 119.77L245.122 121.908L242.985 150L240.847 121.908L212.755 119.77L240.847 117.633L242.985 89.5408ZM90.6888 0L92.8263 28.0921L120.918 30.2296L92.8263 32.3671L90.6888 60.4592L88.5513 32.3671L60.4592 30.2296L88.5513 28.0921L90.6888 0ZM121.301 29.8469L123.439 57.939L151.531 60.0765L123.439 62.214L121.301 90.3061L119.164 62.214L91.0715 60.0765L119.164 57.939L121.301 29.8469ZM151.913 59.6939L154.051 87.786L182.143 89.9235L154.051 92.061L151.913 120.153L149.776 92.061L121.684 89.9235L149.776 87.786L151.913 59.6939Z" fill="#D5E4FF" fill-opacity="0.2"/>
<path d="M182.526 89.5408L184.663 117.633L212.755 119.77L184.663 121.908L182.526 150L180.388 121.908L152.296 119.77L180.388 117.633L182.526 89.5408ZM30.2296 0L32.3671 28.0921L60.4592 30.2296L32.3671 32.3671L30.2296 60.4592L28.0921 32.3671L0 30.2296L28.0921 28.0921L30.2296 0ZM60.8418 29.8469L62.9793 57.939L91.0714 60.0765L62.9793 62.214L60.8418 90.3061L58.7043 62.214L30.6122 60.0765L58.7043 57.939L60.8418 29.8469ZM91.4541 59.6939L93.5916 87.786L121.684 89.9235L93.5916 92.061L91.4541 120.153L89.3166 92.061L61.2245 89.9235L89.3166 87.786L91.4541 59.6939Z" fill="#D5E4FF" fill-opacity="0.2"/>
<path d="M30.2296 59.6938L32.3671 87.7859L60.4592 89.9234L32.3671 92.0609L30.2296 120.153L28.0921 92.0609L0 89.9234L28.0921 87.7859L30.2296 59.6938ZM122.066 89.5408L124.204 117.633L152.296 119.77L124.204 121.908L122.066 150L119.929 121.908L91.8367 119.77L119.929 117.633L122.066 89.5408ZM60.8418 89.5408L62.9793 117.633L91.0714 119.77L62.9793 121.908L60.8418 150L58.7043 121.908L30.6122 119.77L58.7043 117.633L60.8418 89.5408Z" fill="#D5E4FF" fill-opacity="0.2"/>
</g>
<defs>
<clipPath id="clip0_35_842">
<rect width="273.214" height="150" fill="white"/>
</clipPath>
</defs>
</svg>

